HIERARCHY
ROOT Hips
{
  OFFSET 50.1246 54.827 -8.40277
  CHANNELS 6 Xposition Yposition Zposition Zrotation Xrotation Yrotation
  JOINT spine
  {
    OFFSET 0 5.95438 0.342407
    CHANNELS 3 Zrotation Xrotation Yrotation
    JOINT spine1
    {
      OFFSET 0 8.85602 0
      CHANNELS 3 Zrotation Xrotation Yrotation
      JOINT spine2
      {
        OFFSET 0 8.48567 0
        CHANNELS 3 Zrotation Xrotation Yrotation
        JOINT Neck
        {
          OFFSET 0 21.7863 1.0387
          CHANNELS 3 Zrotation Xrotation Yrotation
          JOINT Head
          {
            OFFSET 0 6.5822 0
            CHANNELS 3 Zrotation Xrotation Yrotation
            End Site
            {
              OFFSET 0 15.9326 -5.25436
            }
          }
        }
        JOINT RightShoulder
        {
          OFFSET -3.57307 9.16386 -0.497525
          CHANNELS 3 Zrotation Xrotation Yrotation
          JOINT RightArm
          {
            OFFSET 0 12.0192 0
            CHANNELS 3 Zrotation Xrotation Yrotation
            JOINT RightArmRoll
            {
              OFFSET 0 6.06755 0
              CHANNELS 3 Zrotation Xrotation Yrotation
              JOINT RightForeArm
              {
                OFFSET 0 17.6726 0
                CHANNELS 3 Zrotation Xrotation Yrotation
                JOINT RightForeArmRoll
                {
                  OFFSET 0 6.80872 0
                  CHANNELS 3 Zrotation Xrotation Yrotation
                  JOINT RightHand
                  {
                    OFFSET 0 13.6636 0
                    CHANNELS 3 Zrotation Xrotation Yrotation
                    End Site
                    {
                      OFFSET 0 0 0
                    }
                  }
                }
              }
            }
          }
        }
        JOINT LeftShoulder
        {
          OFFSET 3.57307 9.16386 -0.497525
          CHANNELS 3 Zrotation Xrotation Yrotation
          JOINT LeftArm
          {
            OFFSET 0 12.0192 0
            CHANNELS 3 Zrotation Xrotation Yrotation
            JOINT LeftArmRoll
            {
              OFFSET 0 6.06755 0
              CHANNELS 3 Zrotation Xrotation Yrotation
              JOINT LeftForeArm
              {
                OFFSET 0 17.6726 0
                CHANNELS 3 Zrotation Xrotation Yrotation
                JOINT LeftForeArmRoll
                {
                  OFFSET 0 6.80872 0
                  CHANNELS 3 Zrotation Xrotation Yrotation
                  JOINT LeftHand
                  {
                    OFFSET 0 13.6636 0
                    CHANNELS 3 Zrotation Xrotation Yrotation
                    End Site
                    {
                      OFFSET 0 0 0
                    }
                  }
                }
              }
            }
          }
        }
      }
    }
  }
  JOINT RightUpLeg
  {
    OFFSET -5.27774 -0.967797 -0.811858
    CHANNELS 3 Zrotation Xrotation Yrotation
    JOINT RightUpLegRoll
    {
      OFFSET 0 16.0214 0
      CHANNELS 3 Zrotation Xrotation Yrotation
      JOINT RightLeg
      {
        OFFSET 0 -19.8401 0
        CHANNELS 3 Zrotation Xrotation Yrotation
        JOINT RightLegRoll
        {
          OFFSET 0 19.905 0
          CHANNELS 3 Zrotation Xrotation Yrotation
          JOINT RightFoot
          {
            OFFSET 0 16.5675 0
            CHANNELS 3 Zrotation Xrotation Yrotation
            JOINT RightToeBase
            {
              OFFSET 0 13.8496 0
              CHANNELS 3 Zrotation Xrotation Yrotation
              End Site
              {
                OFFSET 0.00587034 6.70728 -0.773116
              }
            }
          }
        }
      }
    }
  }
  JOINT LeftUpLeg
  {
    OFFSET 5.27774 -0.967797 -0.811858
    CHANNELS 3 Zrotation Xrotation Yrotation
    JOINT LeftUpLegRoll
    {
      OFFSET 0 16.0215 0
      CHANNELS 3 Zrotation Xrotation Yrotation
      JOINT LeftLeg
      {
        OFFSET 0 19.84 0
        CHANNELS 3 Zrotation Xrotation Yrotation
        JOINT LeftLegRoll
        {
          OFFSET 0 20.089 0
          CHANNELS 3 Zrotation Xrotation Yrotation
          JOINT LeftFoot
          {
            OFFSET 0 16.3835 0
            CHANNELS 3 Zrotation Xrotation Yrotation
            JOINT LeftToeBase
            {
              OFFSET 0 13.8496 0
              CHANNELS 3 Zrotation Xrotation Yrotation
              End Site
              {
                OFFSET -0.0263083 6.70727 -0.773117
              }
            }
          }
        }
      }
    }
  }
}
MOTION
Frames: 9
Frame Time: 0.00208333
50.8392 84.7206 29.2547 0.782243 -6.34515 -1.16143 -0.0544104 -1.43569 0.00198683 -0.110957 1.13141 0.0107297 -0.111163 2.77649 0.021824 -0.699152 18.0004 -0.807656 2.21467 3.21232 -0.955248 80.9607 0.485868 -2.23726 98.394 16.7772 0.0729401 -8.39865e-015 3.18055e-015 -2.78299e-015 -3.63561 -0.0264697 -1.99235 -4.4118e-006 5.81243e-006 -3.01161 8.03009 -4.95139 0.697656 -68.4795 -3.74925 2.99823 -112.633 14.9839 11.2389 -3.31614e-006 2.5263e-006 1.10383e-006 3.64365 -0.0249256 1.99242 9.04582e-006 -4.73731e-006 3.01161 -8.03011 -4.95137 -0.697632 176.956 -0.335977 4.02725 180 7.01523e-015 178.825 177.705 8.57797 179.84 1.8279e-006 3.62593e-006 0.104145 -18.6895 67.9403 19.4863 8.13649 25.2327 -3.48774 -178.791 -0.581807 -0.213818 4.54188e-006 -4.6773e-006 -1.1607 -1.98675 -10.5247 0.127662 -2.8201e-006 -1.01903e-005 -0.171476 19.474 68.9334 -20.3399 -8.13649 25.2327 3.48773 
50.83 84.7208 29.2578 0.778772 -6.33414 -1.15917 -0.054092 -1.43491 0.00199556 -0.110161 1.13298 0.010717 -0.110366 2.77805 0.0218429 -0.70069 17.9944 -0.806529 2.21469 3.2168 -0.954795 80.9668 0.481511 -2.23955 98.39 16.7917 0.0721036 8.69683e-015 3.18055e-015 3.18055e-015 -3.63561 -0.0264697 -1.99235 -4.4118e-006 5.81243e-006 -3.01161 8.03009 -4.95139 0.697656 -68.4768 -3.75206 2.99945 -112.64 14.9951 11.2499 -3.31614e-006 2.5263e-006 1.10383e-006 3.64365 -0.0249256 1.99242 9.04582e-006 -4.73731e-006 3.01161 -8.03011 -4.95137 -0.697632 176.965 -0.317489 4.0195 180 7.01523e-015 178.825 177.707 8.57898 179.841 1.8279e-006 3.62593e-006 0.104145 -18.687 67.9374 19.4836 8.13649 25.2327 -3.48774 -178.789 -0.553339 -0.211768 4.54188e-006 -4.6773e-006 -1.16072 -1.98402 -10.5421 0.127803 -2.8201e-006 -1.01903e-005 -0.171444 19.4748 68.9343 -20.3408 -8.13649 25.2327 3.48773 
50.8319 84.7262 29.2463 0.775461 -6.32338 -1.15695 -0.0538235 -1.43415 0.00200305 -0.109458 1.13449 0.0107062 -0.109662 2.77957 0.0218931 -0.701909 17.9881 -0.80552 2.21452 3.22158 -0.954354 80.9736 0.477098 -2.24193 98.3853 16.806 0.0718786 3.51849e-014 0 1.19271e-014 -3.63561 -0.0264697 -1.99235 -4.4118e-006 5.81243e-006 -3.01161 8.03009 -4.95139 0.697656 -68.474 -3.75501 3.00073 -112.648 15.006 11.2609 -3.31614e-006 2.5263e-006 1.10383e-006 3.64365 -0.0249256 1.99242 9.04582e-006 -4.73731e-006 3.01161 -8.03011 -4.95137 -0.697632 176.973 -0.299537 4.01207 180 7.01523e-015 178.825 177.71 8.57968 179.841 1.8279e-006 3.62593e-006 0.104145 -18.6846 67.9344 19.481 8.13649 25.2327 -3.48774 -178.786 -0.525484 -0.20974 4.54188e-006 -4.6773e-006 -1.16075 -1.98143 -10.5591 0.127895 -2.8201e-006 -1.01903e-005 -0.171397 19.4756 68.9352 -20.3416 -8.13649 25.2327 3.48773 
50.8252 84.723 29.2339 0.772263 -6.31279 -1.15475 -0.0535898 -1.43341 0.00200969 -0.108821 1.13598 0.0106967 -0.109024 2.78105 0.0219651 -0.702905 17.9817 -0.804592 2.21422 3.22656 -0.953922 80.9807 0.472646 -2.24437 98.3801 16.8203 0.0720817 8.05078e-015 -3.18055e-015 2.98177e-015 -3.63561 -0.0264697 -1.99235 -4.4118e-006 5.81243e-006 -3.01161 8.03009 -4.95139 0.697656 -68.4711 -3.75806 3.00206 -112.655 15.0167 11.2719 -3.31614e-006 2.5263e-006 1.10383e-006 3.64365 -0.0249256 1.99242 9.04582e-006 -4.73731e-006 3.01161 -8.03011 -4.95137 -0.697632 176.981 -0.28196 4.00487 180 7.01523e-015 178.825 177.712 8.58018 179.842 1.8279e-006 3.62593e-006 0.104145 -18.6821 67.9315 19.4784 8.13649 25.2327 -3.48774 -178.784 -0.498057 -0.207727 4.54188e-006 -4.6773e-006 -1.1608 -1.97894 -10.5758 0.127952 -2.8201e-006 -1.01903e-005 -0.171338 19.4764 68.9361 -20.3425 -8.13649 25.2327 3.48773 
50.8293 84.7135 29.2273 0.769129 -6.30231 -1.15258 -0.053376 -1.43268 0.00201584 -0.108222 1.13744 0.0106881 -0.108424 2.78251 0.0220495 -0.703773 17.9751 -0.803712 2.21385 3.23166 -0.953494 80.9881 0.468173 -2.24683 98.3747 16.8344 0.0725296 -6.90777e-015 -3.18055e-015 -1.78906e-015 -3.63561 -0.0264697 -1.99235 -4.4118e-006 5.81243e-006 -3.01161 8.03009 -4.95139 0.697656 -68.4681 -3.76118 3.00342 -112.663 15.0273 11.2828 -3.31614e-006 2.5263e-006 1.10383e-006 3.64365 -0.0249256 1.99242 9.04582e-006 -4.73731e-006 3.01161 -8.03011 -4.95137 -0.697632 176.989 -0.264598 3.99779 180 7.01523e-015 178.825 177.715 8.58055 179.843 1.8279e-006 3.62593e-006 0.104145 -18.6797 67.9286 19.4757 8.13649 25.2327 -3.48774 -178.782 -0.470876 -0.205722 4.54188e-006 -4.6773e-006 -1.16086 -1.9765 -10.5924 0.127989 -2.8201e-006 -1.01903e-005 -0.171274 19.4773 68.937 -20.3434 -8.13649 25.2327 3.48773 
50.8319 84.7154 29.2273 0.76601 -6.29185 -1.15041 -0.0531671 -1.43195 0.00202187 -0.107632 1.1389 0.0106796 -0.107833 2.78397 0.0221371 -0.704608 17.9685 -0.802844 2.21345 3.23679 -0.953068 80.9956 0.463694 -2.24931 98.3693 16.8486 0.0730387 6.80837e-015 -3.18055e-015 2.5842e-015 -3.63561 -0.0264697 -1.99235 -4.4118e-006 5.81243e-006 -3.01161 8.03009 -4.95139 0.697656 -68.4651 -3.76431 3.00478 -112.67 15.0379 11.2938 -3.31614e-006 2.5263e-006 1.10383e-006 3.64365 -0.0249256 1.99242 9.04582e-006 -4.73731e-006 3.01161 -8.03011 -4.95137 -0.697632 176.997 -0.247289 3.99074 180 7.01524e-015 178.825 177.717 8.5809 179.844 1.8279e-006 3.62593e-006 0.104145 -18.6772 67.9256 19.4731 8.13649 25.2327 -3.48774 -178.78 -0.443755 -0.203719 4.54188e-006 -4.6773e-006 -1.16093 -1.97408 -10.609 0.128021 -2.8201e-006 -1.01903e-005 -0.171208 19.4781 68.9379 -20.3442 -8.13649 25.2327 3.48773 
50.8244 84.7191 29.2252 0.762858 -6.28134 -1.14823 -0.0529483 -1.43122 0.00202814 -0.107024 1.14036 0.0106708 -0.107223 2.78543 0.0222185 -0.705507 17.962 -0.801952 2.21309 3.24186 -0.95264 81.0029 0.459225 -2.25177 98.364 16.8627 0.0734255 -6.11263e-015 0 -2.38542e-015 -3.63561 -0.0264697 -1.99235 -4.4118e-006 5.81243e-006 -3.01161 8.03009 -4.95139 0.697656 -68.4621 -3.76741 3.00613 -112.678 15.0485 11.3048 -3.31614e-006 2.5263e-006 1.10383e-006 3.64365 -0.0249256 1.99242 9.04582e-006 -4.73731e-006 3.01161 -8.03011 -4.95137 -0.697632 177.005 -0.229872 3.98363 180 7.01524e-015 178.826 177.719 8.5813 179.844 1.8279e-006 3.62593e-006 0.104145 -18.6748 67.9227 19.4704 8.13649 25.2327 -3.48774 -178.778 -0.416513 -0.201712 4.54188e-006 -4.6773e-006 -1.16099 -1.97162 -10.6256 0.128063 -2.8201e-006 -1.01903e-005 -0.171145 19.4789 68.9388 -20.3451 -8.13649 25.2327 3.48773 
50.8253 84.7166 29.2121 0.759624 -6.27071 -1.14603 -0.0527047 -1.43047 0.00203503 -0.106368 1.14185 0.0106609 -0.106566 2.78693 0.0222842 -0.706566 17.9556 -0.801002 2.21283 3.24678 -0.952205 81.01 0.454785 -2.25419 98.359 16.877 0.0735065 -1.00386e-014 -3.18055e-015 -3.18055e-015 -3.63561 -0.0264697 -1.99235 -4.4118e-006 5.81243e-006 -3.01161 8.03009 -4.95139 0.697656 -68.4592 -3.77043 3.00744 -112.686 15.0593 11.3158 -3.31614e-006 2.5263e-006 1.10383e-006 3.64365 -0.0249256 1.99242 9.04582e-006 -4.73731e-006 3.01161 -8.03011 -4.95137 -0.697632 177.013 -0.212187 3.97636 180 7.01524e-015 178.826 177.722 8.58186 179.845 1.8279e-006 3.62593e-006 0.104145 -18.6723 67.9198 19.4678 8.13649 25.2327 -3.48774 -178.776 -0.388964 -0.199695 4.54188e-006 -4.6773e-006 -1.16103 -1.9691 -10.6424 0.12813 -2.8201e-006 -1.01903e-005 -0.171089 19.4797 68.9397 -20.346 -8.13649 25.2327 3.48773 
50.8307 84.7177 29.2018 0.756261 -6.25987 -1.1438 -0.0524212 -1.4297 0.00204289 -0.105637 1.14338 0.0106496 -0.105834 2.78846 0.022325 -0.707879 17.9494 -0.799957 2.21272 3.25147 -0.951761 81.0165 0.450389 -2.25654 98.3545 16.8914 0.0730979 7.10655e-015 -6.36111e-015 2.18663e-015 -3.63561 -0.0264697 -1.99235 -4.4118e-006 5.81243e-006 -3.01161 8.03009 -4.95139 0.697656 -68.4564 -3.77334 3.00871 -112.693 15.0703 11.3267 -3.31614e-006 2.5263e-006 1.10383e-006 3.64365 -0.0249256 1.99242 9.04582e-006 -4.73731e-006 3.01161 -8.03011 -4.95137 -0.697632 177.021 -0.194072 3.96884 180 7.01524e-015 178.826 177.724 8.58266 179.846 1.8279e-006 3.62593e-006 0.104145 -18.6699 67.9169 19.4652 8.13649 25.2327 -3.48774 -178.773 -0.360925 -0.197661 4.54188e-006 -4.6773e-006 -1.16106 -1.96647 -10.6595 0.128237 -2.8201e-006 -1.01903e-005 -0.171046 19.4806 68.9406 -20.3468 -8.13649 25.2327 3.48773 
